<mxfile host="app.diagrams.net" agent="Mozilla/5.0 (Macintosh; Intel Mac OS X 10_15_7) AppleWebKit/605.1.15 (KHTML, like Gecko) Version/18.3.1 Safari/605.1.15" version="26.1.2">
  <diagram name="Page-1" id="Jy-6eYrlk-kULxUpwNIJ">
    <mxGraphModel dx="1010" dy="675" grid="1" gridSize="10" guides="1" tooltips="1" connect="1" arrows="1" fold="1" page="1" pageScale="1" pageWidth="827" pageHeight="1169" math="0" shadow="0">
      <root>
        <mxCell id="0" />
        <mxCell id="1" parent="0" />
        <mxCell id="ExP0yfeotrht90dCuRNz-1" value="&lt;b&gt;Príchod objednávky&lt;/b&gt;" style="ellipse;whiteSpace=wrap;html=1;fillColor=#fff2cc;gradientColor=#ffd966;strokeColor=#000000;strokeWidth=2;" parent="1" vertex="1">
          <mxGeometry x="40" y="160" width="120" height="90" as="geometry" />
        </mxCell>
        <mxCell id="ExP0yfeotrht90dCuRNz-2" value="" style="curved=1;endArrow=classic;html=1;rounded=0;entryX=0.742;entryY=0.933;entryDx=0;entryDy=0;entryPerimeter=0;exitX=0.25;exitY=0.956;exitDx=0;exitDy=0;exitPerimeter=0;strokeWidth=2;fillColor=#ffcd28;gradientColor=#ffa500;strokeColor=#d79b00;" parent="1" source="ExP0yfeotrht90dCuRNz-1" target="ExP0yfeotrht90dCuRNz-1" edge="1">
          <mxGeometry width="50" height="50" relative="1" as="geometry">
            <mxPoint x="390" y="370" as="sourcePoint" />
            <mxPoint x="440" y="320" as="targetPoint" />
            <Array as="points">
              <mxPoint x="70" y="300" />
              <mxPoint x="140" y="300" />
            </Array>
          </mxGeometry>
        </mxCell>
        <mxCell id="ExP0yfeotrht90dCuRNz-3" value="u_prichod" style="text;html=1;align=center;verticalAlign=middle;whiteSpace=wrap;rounded=0;strokeWidth=1;" parent="1" vertex="1">
          <mxGeometry x="80" y="300" width="60" height="30" as="geometry" />
        </mxCell>
        <mxCell id="ExP0yfeotrht90dCuRNz-4" value="Front čakajúcich na &lt;b&gt;rezanie&lt;/b&gt;" style="rounded=0;whiteSpace=wrap;html=1;strokeWidth=2;dashed=1;dashPattern=1 1;" parent="1" vertex="1">
          <mxGeometry x="230" y="70" width="180" height="40" as="geometry" />
        </mxCell>
        <mxCell id="ExP0yfeotrht90dCuRNz-5" value="&lt;i&gt;Začiatok&lt;/i&gt; &lt;b&gt;rezania&lt;/b&gt;" style="ellipse;whiteSpace=wrap;html=1;aspect=fixed;strokeWidth=2;fillColor=#d5e8d4;gradientColor=#97d077;strokeColor=#000000;" parent="1" vertex="1">
          <mxGeometry x="320" y="160" width="80" height="80" as="geometry" />
        </mxCell>
        <mxCell id="ExP0yfeotrht90dCuRNz-8" value="&lt;i&gt;Koniec&lt;/i&gt; &lt;b&gt;rezania&lt;/b&gt;" style="ellipse;whiteSpace=wrap;html=1;aspect=fixed;strokeWidth=2;fillColor=#d5e8d4;gradientColor=#97d077;strokeColor=#000000;" parent="1" vertex="1">
          <mxGeometry x="500" y="160" width="80" height="80" as="geometry" />
        </mxCell>
        <mxCell id="ExP0yfeotrht90dCuRNz-9" value="0" style="text;html=1;align=center;verticalAlign=middle;whiteSpace=wrap;rounded=0;" parent="1" vertex="1">
          <mxGeometry x="100" y="120" width="60" height="30" as="geometry" />
        </mxCell>
        <mxCell id="ExP0yfeotrht90dCuRNz-12" value="u_rezanie" style="text;html=1;align=center;verticalAlign=middle;whiteSpace=wrap;rounded=0;" parent="1" vertex="1">
          <mxGeometry x="420" y="120" width="60" height="30" as="geometry" />
        </mxCell>
        <mxCell id="ExP0yfeotrht90dCuRNz-14" value="Front čakajúcich na &lt;b&gt;morenie&lt;/b&gt;" style="rounded=0;whiteSpace=wrap;html=1;strokeWidth=2;dashed=1;dashPattern=1 1;" parent="1" vertex="1">
          <mxGeometry x="600" y="280" width="180" height="40" as="geometry" />
        </mxCell>
        <mxCell id="ExP0yfeotrht90dCuRNz-15" value="Front čakajúcich na &lt;b&gt;skladanie&lt;/b&gt;" style="rounded=0;whiteSpace=wrap;html=1;dashed=1;dashPattern=1 2;strokeWidth=2;" parent="1" vertex="1">
          <mxGeometry x="50" y="440" width="180" height="40" as="geometry" />
        </mxCell>
        <mxCell id="ExP0yfeotrht90dCuRNz-16" value="Front čakajúcich na &lt;b&gt;montáž&lt;/b&gt; &lt;b&gt;kovaní&lt;/b&gt;" style="rounded=0;whiteSpace=wrap;html=1;strokeWidth=2;dashed=1;dashPattern=1 2;" parent="1" vertex="1">
          <mxGeometry x="610" y="630" width="180" height="40" as="geometry" />
        </mxCell>
        <mxCell id="ExP0yfeotrht90dCuRNz-17" value="&lt;i&gt;Začiatok&lt;/i&gt; &lt;b&gt;morenia&lt;/b&gt;" style="ellipse;whiteSpace=wrap;html=1;aspect=fixed;strokeWidth=2;fillColor=#f8cecc;gradientColor=#ea6b66;strokeColor=#000000;" parent="1" vertex="1">
          <mxGeometry x="500" y="340" width="80" height="80" as="geometry" />
        </mxCell>
        <mxCell id="ExP0yfeotrht90dCuRNz-18" value="&lt;i&gt;Koniec&lt;/i&gt; &lt;b&gt;morenia&lt;/b&gt;" style="ellipse;whiteSpace=wrap;html=1;aspect=fixed;strokeWidth=2;fillColor=#f8cecc;gradientColor=#ea6b66;strokeColor=#000000;" parent="1" vertex="1">
          <mxGeometry x="320" y="340" width="80" height="80" as="geometry" />
        </mxCell>
        <mxCell id="ExP0yfeotrht90dCuRNz-19" value="&lt;i&gt;Začiatok&lt;/i&gt; &lt;b&gt;skladania&lt;/b&gt;" style="ellipse;whiteSpace=wrap;html=1;aspect=fixed;fillColor=#dae8fc;gradientColor=#7ea6e0;strokeColor=#000000;strokeWidth=2;" parent="1" vertex="1">
          <mxGeometry x="320" y="505" width="80" height="80" as="geometry" />
        </mxCell>
        <mxCell id="ExP0yfeotrht90dCuRNz-20" value="&lt;i&gt;Koniec&lt;/i&gt; &lt;b&gt;skladania&lt;/b&gt;" style="ellipse;whiteSpace=wrap;html=1;aspect=fixed;fillColor=#dae8fc;gradientColor=#7ea6e0;strokeColor=#000000;strokeWidth=2;" parent="1" vertex="1">
          <mxGeometry x="500" y="505" width="80" height="80" as="geometry" />
        </mxCell>
        <mxCell id="ExP0yfeotrht90dCuRNz-21" value="&lt;i&gt;Začiatok&lt;/i&gt; &lt;b&gt;montáže&lt;/b&gt; &lt;b&gt;kovaní&lt;/b&gt;" style="ellipse;whiteSpace=wrap;html=1;aspect=fixed;strokeWidth=2;fillColor=#e6d0de;gradientColor=#d5739d;strokeColor=light-dark(#000000, #b181a0);" parent="1" vertex="1">
          <mxGeometry x="500" y="670" width="80" height="80" as="geometry" />
        </mxCell>
        <mxCell id="ExP0yfeotrht90dCuRNz-22" value="&lt;i&gt;Koniec&lt;/i&gt; &lt;b&gt;montáže&lt;/b&gt; &lt;b&gt;kovaní&lt;/b&gt;" style="ellipse;whiteSpace=wrap;html=1;aspect=fixed;strokeWidth=2;fillColor=#e6d0de;gradientColor=#d5739d;strokeColor=light-dark(#000000, #b181a0);" parent="1" vertex="1">
          <mxGeometry x="320" y="670" width="80" height="80" as="geometry" />
        </mxCell>
        <mxCell id="ExP0yfeotrht90dCuRNz-25" value="0" style="text;html=1;align=center;verticalAlign=middle;whiteSpace=wrap;rounded=0;" parent="1" vertex="1">
          <mxGeometry x="420" y="220" width="60" height="30" as="geometry" />
        </mxCell>
        <mxCell id="ExP0yfeotrht90dCuRNz-29" value="" style="endArrow=classic;html=1;rounded=0;entryX=0;entryY=0.5;entryDx=0;entryDy=0;curved=1;dashed=1;strokeWidth=2;fillColor=#f8cecc;gradientColor=#ea6b66;strokeColor=#b85450;" parent="1" target="ExP0yfeotrht90dCuRNz-14" edge="1">
          <mxGeometry width="50" height="50" relative="1" as="geometry">
            <mxPoint x="540" y="240" as="sourcePoint" />
            <mxPoint x="520" y="320" as="targetPoint" />
            <Array as="points">
              <mxPoint x="550" y="300" />
            </Array>
          </mxGeometry>
        </mxCell>
        <mxCell id="ExP0yfeotrht90dCuRNz-30" value="" style="endArrow=classic;html=1;rounded=0;exitX=0.5;exitY=0;exitDx=0;exitDy=0;entryX=0;entryY=0.5;entryDx=0;entryDy=0;strokeWidth=2;fillColor=#d5e8d4;gradientColor=#97d077;strokeColor=#82b366;curved=1;dashed=1;" parent="1" source="ExP0yfeotrht90dCuRNz-1" target="ExP0yfeotrht90dCuRNz-4" edge="1">
          <mxGeometry width="50" height="50" relative="1" as="geometry">
            <mxPoint x="470" y="370" as="sourcePoint" />
            <mxPoint x="520" y="320" as="targetPoint" />
            <Array as="points">
              <mxPoint x="140" y="70" />
            </Array>
          </mxGeometry>
        </mxCell>
        <mxCell id="ExP0yfeotrht90dCuRNz-31" value="" style="endArrow=classic;html=1;rounded=0;exitX=1;exitY=0.5;exitDx=0;exitDy=0;entryX=1;entryY=0.5;entryDx=0;entryDy=0;curved=1;strokeWidth=2;fillColor=#d5e8d4;gradientColor=#97d077;strokeColor=#82b366;dashed=1;" parent="1" source="ExP0yfeotrht90dCuRNz-4" target="ExP0yfeotrht90dCuRNz-8" edge="1">
          <mxGeometry width="50" height="50" relative="1" as="geometry">
            <mxPoint x="470" y="370" as="sourcePoint" />
            <mxPoint x="520" y="320" as="targetPoint" />
            <Array as="points">
              <mxPoint x="590" y="100" />
            </Array>
          </mxGeometry>
        </mxCell>
        <mxCell id="ExP0yfeotrht90dCuRNz-32" value="" style="endArrow=classic;html=1;rounded=0;exitX=0.5;exitY=0;exitDx=0;exitDy=0;entryX=0;entryY=0.5;entryDx=0;entryDy=0;strokeWidth=2;dashed=1;curved=1;" parent="1" source="ExP0yfeotrht90dCuRNz-1" target="ExP0yfeotrht90dCuRNz-5" edge="1">
          <mxGeometry width="50" height="50" relative="1" as="geometry">
            <mxPoint x="480" y="380" as="sourcePoint" />
            <mxPoint x="530" y="330" as="targetPoint" />
            <Array as="points">
              <mxPoint x="220" y="130" />
            </Array>
          </mxGeometry>
        </mxCell>
        <mxCell id="ExP0yfeotrht90dCuRNz-34" value="" style="endArrow=classic;html=1;rounded=0;exitX=1;exitY=0;exitDx=0;exitDy=0;entryX=0;entryY=0;entryDx=0;entryDy=0;strokeWidth=2;curved=1;" parent="1" source="ExP0yfeotrht90dCuRNz-5" target="ExP0yfeotrht90dCuRNz-8" edge="1">
          <mxGeometry width="50" height="50" relative="1" as="geometry">
            <mxPoint x="480" y="380" as="sourcePoint" />
            <mxPoint x="530" y="330" as="targetPoint" />
            <Array as="points">
              <mxPoint x="450" y="140" />
            </Array>
          </mxGeometry>
        </mxCell>
        <mxCell id="ExP0yfeotrht90dCuRNz-35" value="" style="endArrow=classic;html=1;rounded=0;entryX=0.5;entryY=1;entryDx=0;entryDy=0;exitX=0.5;exitY=1;exitDx=0;exitDy=0;strokeWidth=2;dashed=1;curved=1;" parent="1" source="ExP0yfeotrht90dCuRNz-8" target="ExP0yfeotrht90dCuRNz-5" edge="1">
          <mxGeometry width="50" height="50" relative="1" as="geometry">
            <mxPoint x="480" y="380" as="sourcePoint" />
            <mxPoint x="530" y="330" as="targetPoint" />
            <Array as="points">
              <mxPoint x="450" y="270" />
            </Array>
          </mxGeometry>
        </mxCell>
        <mxCell id="ExP0yfeotrht90dCuRNz-36" value="0" style="text;html=1;align=center;verticalAlign=middle;whiteSpace=wrap;rounded=0;" parent="1" vertex="1">
          <mxGeometry x="530" y="250" width="60" height="30" as="geometry" />
        </mxCell>
        <mxCell id="ExP0yfeotrht90dCuRNz-37" value="" style="endArrow=classic;html=1;rounded=0;entryX=0.5;entryY=0;entryDx=0;entryDy=0;exitX=0.5;exitY=1;exitDx=0;exitDy=0;strokeWidth=2;dashed=1;curved=1;" parent="1" source="ExP0yfeotrht90dCuRNz-8" target="ExP0yfeotrht90dCuRNz-17" edge="1">
          <mxGeometry width="50" height="50" relative="1" as="geometry">
            <mxPoint x="480" y="380" as="sourcePoint" />
            <mxPoint x="530" y="330" as="targetPoint" />
            <Array as="points">
              <mxPoint x="530" y="290" />
            </Array>
          </mxGeometry>
        </mxCell>
        <mxCell id="ExP0yfeotrht90dCuRNz-39" value="" style="endArrow=classic;html=1;rounded=0;entryX=1;entryY=0;entryDx=0;entryDy=0;exitX=0;exitY=0;exitDx=0;exitDy=0;curved=1;strokeWidth=2;" parent="1" source="ExP0yfeotrht90dCuRNz-17" target="ExP0yfeotrht90dCuRNz-18" edge="1">
          <mxGeometry width="50" height="50" relative="1" as="geometry">
            <mxPoint x="480" y="380" as="sourcePoint" />
            <mxPoint x="530" y="330" as="targetPoint" />
            <Array as="points">
              <mxPoint x="450" y="310" />
            </Array>
          </mxGeometry>
        </mxCell>
        <mxCell id="ExP0yfeotrht90dCuRNz-40" value="u_morenie" style="text;html=1;align=center;verticalAlign=middle;whiteSpace=wrap;rounded=0;" parent="1" vertex="1">
          <mxGeometry x="421" y="292" width="60" height="30" as="geometry" />
        </mxCell>
        <mxCell id="ExP0yfeotrht90dCuRNz-43" value="" style="endArrow=classic;html=1;rounded=0;exitX=1;exitY=0.5;exitDx=0;exitDy=0;entryX=0.5;entryY=1;entryDx=0;entryDy=0;strokeWidth=2;fillColor=#f8cecc;gradientColor=#ea6b66;strokeColor=#b85450;curved=1;dashed=1;" parent="1" source="ExP0yfeotrht90dCuRNz-14" target="ExP0yfeotrht90dCuRNz-18" edge="1">
          <mxGeometry width="50" height="50" relative="1" as="geometry">
            <mxPoint x="780" y="290" as="sourcePoint" />
            <mxPoint x="360" y="410" as="targetPoint" />
            <Array as="points">
              <mxPoint x="810" y="300" />
              <mxPoint x="790" y="470" />
              <mxPoint x="500" y="460" />
            </Array>
          </mxGeometry>
        </mxCell>
        <mxCell id="ExP0yfeotrht90dCuRNz-44" value="" style="endArrow=classic;html=1;rounded=0;exitX=1;exitY=1;exitDx=0;exitDy=0;entryX=0;entryY=1;entryDx=0;entryDy=0;curved=1;dashed=1;strokeWidth=2;" parent="1" source="ExP0yfeotrht90dCuRNz-18" target="ExP0yfeotrht90dCuRNz-17" edge="1">
          <mxGeometry width="50" height="50" relative="1" as="geometry">
            <mxPoint x="480" y="380" as="sourcePoint" />
            <mxPoint x="530" y="330" as="targetPoint" />
            <Array as="points">
              <mxPoint x="450" y="440" />
            </Array>
          </mxGeometry>
        </mxCell>
        <mxCell id="ExP0yfeotrht90dCuRNz-45" value="0" style="text;html=1;align=center;verticalAlign=middle;whiteSpace=wrap;rounded=0;" parent="1" vertex="1">
          <mxGeometry x="384" y="390" width="60" height="30" as="geometry" />
        </mxCell>
        <mxCell id="ExP0yfeotrht90dCuRNz-46" value="" style="endArrow=classic;html=1;rounded=0;exitX=1;exitY=0;exitDx=0;exitDy=0;entryX=0;entryY=0;entryDx=0;entryDy=0;strokeWidth=2;curved=1;" parent="1" source="ExP0yfeotrht90dCuRNz-19" target="ExP0yfeotrht90dCuRNz-20" edge="1">
          <mxGeometry width="50" height="50" relative="1" as="geometry">
            <mxPoint x="370" y="380" as="sourcePoint" />
            <mxPoint x="420" y="330" as="targetPoint" />
            <Array as="points">
              <mxPoint x="450" y="490" />
            </Array>
          </mxGeometry>
        </mxCell>
        <mxCell id="ExP0yfeotrht90dCuRNz-47" value="" style="endArrow=classic;html=1;rounded=0;entryX=1;entryY=1;entryDx=0;entryDy=0;exitX=0;exitY=1;exitDx=0;exitDy=0;strokeWidth=2;curved=1;dashed=1;" parent="1" source="ExP0yfeotrht90dCuRNz-20" target="ExP0yfeotrht90dCuRNz-19" edge="1">
          <mxGeometry width="50" height="50" relative="1" as="geometry">
            <mxPoint x="370" y="380" as="sourcePoint" />
            <mxPoint x="420" y="330" as="targetPoint" />
            <Array as="points">
              <mxPoint x="450" y="600" />
            </Array>
          </mxGeometry>
        </mxCell>
        <mxCell id="ExP0yfeotrht90dCuRNz-48" value="u_skladanie" style="text;html=1;align=center;verticalAlign=middle;whiteSpace=wrap;rounded=0;" parent="1" vertex="1">
          <mxGeometry x="420" y="470" width="60" height="30" as="geometry" />
        </mxCell>
        <mxCell id="ExP0yfeotrht90dCuRNz-49" value="0" style="text;html=1;align=center;verticalAlign=middle;whiteSpace=wrap;rounded=0;" parent="1" vertex="1">
          <mxGeometry x="420" y="550" width="60" height="30" as="geometry" />
        </mxCell>
        <mxCell id="ExP0yfeotrht90dCuRNz-50" value="" style="endArrow=classic;html=1;rounded=0;exitX=0;exitY=0.5;exitDx=0;exitDy=0;entryX=0;entryY=0.5;entryDx=0;entryDy=0;curved=1;dashed=1;strokeWidth=2;fillColor=#dae8fc;gradientColor=#7ea6e0;strokeColor=#6c8ebf;" parent="1" source="ExP0yfeotrht90dCuRNz-18" target="ExP0yfeotrht90dCuRNz-15" edge="1">
          <mxGeometry width="50" height="50" relative="1" as="geometry">
            <mxPoint x="370" y="380" as="sourcePoint" />
            <mxPoint x="420" y="330" as="targetPoint" />
            <Array as="points">
              <mxPoint x="-50" y="370" />
            </Array>
          </mxGeometry>
        </mxCell>
        <mxCell id="ExP0yfeotrht90dCuRNz-51" value="" style="endArrow=classic;html=1;rounded=0;exitX=1;exitY=0.5;exitDx=0;exitDy=0;entryX=0.5;entryY=0;entryDx=0;entryDy=0;curved=1;dashed=1;strokeWidth=2;fillColor=#dae8fc;gradientColor=#7ea6e0;strokeColor=#6c8ebf;" parent="1" source="ExP0yfeotrht90dCuRNz-15" target="ExP0yfeotrht90dCuRNz-20" edge="1">
          <mxGeometry width="50" height="50" relative="1" as="geometry">
            <mxPoint x="370" y="380" as="sourcePoint" />
            <mxPoint x="420" y="330" as="targetPoint" />
            <Array as="points">
              <mxPoint x="490" y="440" />
            </Array>
          </mxGeometry>
        </mxCell>
        <mxCell id="ExP0yfeotrht90dCuRNz-52" value="" style="endArrow=classic;html=1;rounded=0;exitX=0;exitY=0.5;exitDx=0;exitDy=0;entryX=0;entryY=0.5;entryDx=0;entryDy=0;strokeWidth=2;curved=1;dashed=1;" parent="1" source="ExP0yfeotrht90dCuRNz-18" target="ExP0yfeotrht90dCuRNz-19" edge="1">
          <mxGeometry width="50" height="50" relative="1" as="geometry">
            <mxPoint x="370" y="500" as="sourcePoint" />
            <mxPoint x="420" y="450" as="targetPoint" />
            <Array as="points">
              <mxPoint x="260" y="490" />
            </Array>
          </mxGeometry>
        </mxCell>
        <mxCell id="ExP0yfeotrht90dCuRNz-53" value="" style="endArrow=classic;html=1;rounded=0;exitX=0.5;exitY=1;exitDx=0;exitDy=0;entryX=0;entryY=0.5;entryDx=0;entryDy=0;dashed=1;strokeWidth=2;fillColor=#e6d0de;gradientColor=#d5739d;strokeColor=#996185;curved=1;" parent="1" source="ExP0yfeotrht90dCuRNz-20" target="ExP0yfeotrht90dCuRNz-16" edge="1">
          <mxGeometry width="50" height="50" relative="1" as="geometry">
            <mxPoint x="370" y="540" as="sourcePoint" />
            <mxPoint x="420" y="490" as="targetPoint" />
            <Array as="points">
              <mxPoint x="560" y="640" />
            </Array>
          </mxGeometry>
        </mxCell>
        <mxCell id="ExP0yfeotrht90dCuRNz-54" value="" style="endArrow=classic;html=1;rounded=0;exitX=0.5;exitY=1;exitDx=0;exitDy=0;entryX=0.5;entryY=0;entryDx=0;entryDy=0;strokeWidth=2;curved=1;dashed=1;" parent="1" source="ExP0yfeotrht90dCuRNz-20" target="ExP0yfeotrht90dCuRNz-21" edge="1">
          <mxGeometry width="50" height="50" relative="1" as="geometry">
            <mxPoint x="370" y="490" as="sourcePoint" />
            <mxPoint x="420" y="440" as="targetPoint" />
            <Array as="points">
              <mxPoint x="520" y="630" />
            </Array>
          </mxGeometry>
        </mxCell>
        <mxCell id="ExP0yfeotrht90dCuRNz-55" value="0" style="text;html=1;align=center;verticalAlign=middle;whiteSpace=wrap;rounded=0;" parent="1" vertex="1">
          <mxGeometry x="510" y="610" width="60" height="30" as="geometry" />
        </mxCell>
        <mxCell id="ExP0yfeotrht90dCuRNz-56" value="" style="endArrow=classic;html=1;rounded=0;exitX=0;exitY=0;exitDx=0;exitDy=0;entryX=1;entryY=0;entryDx=0;entryDy=0;strokeWidth=2;curved=1;" parent="1" source="ExP0yfeotrht90dCuRNz-21" target="ExP0yfeotrht90dCuRNz-22" edge="1">
          <mxGeometry width="50" height="50" relative="1" as="geometry">
            <mxPoint x="370" y="690" as="sourcePoint" />
            <mxPoint x="420" y="640" as="targetPoint" />
            <Array as="points">
              <mxPoint x="450" y="650" />
            </Array>
          </mxGeometry>
        </mxCell>
        <mxCell id="ExP0yfeotrht90dCuRNz-57" value="u_montaz" style="text;html=1;align=center;verticalAlign=middle;whiteSpace=wrap;rounded=0;" parent="1" vertex="1">
          <mxGeometry x="414" y="630" width="60" height="30" as="geometry" />
        </mxCell>
        <mxCell id="ExP0yfeotrht90dCuRNz-58" value="" style="endArrow=classic;html=1;rounded=0;exitX=1;exitY=1;exitDx=0;exitDy=0;entryX=0;entryY=1;entryDx=0;entryDy=0;strokeWidth=2;dashed=1;curved=1;" parent="1" source="ExP0yfeotrht90dCuRNz-22" target="ExP0yfeotrht90dCuRNz-21" edge="1">
          <mxGeometry width="50" height="50" relative="1" as="geometry">
            <mxPoint x="370" y="690" as="sourcePoint" />
            <mxPoint x="420" y="640" as="targetPoint" />
            <Array as="points">
              <mxPoint x="450" y="760" />
            </Array>
          </mxGeometry>
        </mxCell>
        <mxCell id="ExP0yfeotrht90dCuRNz-59" value="0" style="text;html=1;align=center;verticalAlign=middle;whiteSpace=wrap;rounded=0;" parent="1" vertex="1">
          <mxGeometry x="414" y="720" width="60" height="30" as="geometry" />
        </mxCell>
        <mxCell id="ExP0yfeotrht90dCuRNz-60" value="" style="endArrow=classic;html=1;rounded=0;exitX=1;exitY=0.5;exitDx=0;exitDy=0;entryX=0.5;entryY=1;entryDx=0;entryDy=0;curved=1;dashed=1;strokeWidth=2;fillColor=#e6d0de;gradientColor=#d5739d;strokeColor=#996185;" parent="1" source="ExP0yfeotrht90dCuRNz-16" target="ExP0yfeotrht90dCuRNz-22" edge="1">
          <mxGeometry width="50" height="50" relative="1" as="geometry">
            <mxPoint x="370" y="600" as="sourcePoint" />
            <mxPoint x="420" y="550" as="targetPoint" />
            <Array as="points">
              <mxPoint x="880" y="810" />
            </Array>
          </mxGeometry>
        </mxCell>
        <mxCell id="pu5RvgSUy4S_XeFUE6lE-1" value="" style="endArrow=classic;html=1;rounded=0;exitX=1;exitY=1;exitDx=0;exitDy=0;entryX=0.5;entryY=1;entryDx=0;entryDy=0;strokeWidth=2;curved=1;dashed=1;" edge="1" parent="1" source="ExP0yfeotrht90dCuRNz-22" target="ExP0yfeotrht90dCuRNz-17">
          <mxGeometry width="50" height="50" relative="1" as="geometry">
            <mxPoint x="390" y="510" as="sourcePoint" />
            <mxPoint x="440" y="460" as="targetPoint" />
            <Array as="points">
              <mxPoint x="770" y="840" />
            </Array>
          </mxGeometry>
        </mxCell>
        <mxCell id="pu5RvgSUy4S_XeFUE6lE-2" value="" style="endArrow=classic;html=1;rounded=0;exitX=1;exitY=0.5;exitDx=0;exitDy=0;strokeWidth=2;dashed=1;fillColor=#e1d5e7;strokeColor=#9673a6;curved=1;" edge="1" parent="1" source="ExP0yfeotrht90dCuRNz-14">
          <mxGeometry width="50" height="50" relative="1" as="geometry">
            <mxPoint x="390" y="540" as="sourcePoint" />
            <mxPoint x="360" y="750" as="targetPoint" />
            <Array as="points">
              <mxPoint x="800" y="310" />
              <mxPoint x="800" y="590" />
              <mxPoint x="830" y="830" />
            </Array>
          </mxGeometry>
        </mxCell>
        <mxCell id="pu5RvgSUy4S_XeFUE6lE-3" value="" style="endArrow=classic;html=1;rounded=0;entryX=0.275;entryY=0.025;entryDx=0;entryDy=0;entryPerimeter=0;strokeWidth=2;dashed=1;" edge="1" parent="1" target="ExP0yfeotrht90dCuRNz-21">
          <mxGeometry width="50" height="50" relative="1" as="geometry">
            <mxPoint x="390" y="410" as="sourcePoint" />
            <mxPoint x="600" y="570" as="targetPoint" />
          </mxGeometry>
        </mxCell>
        <mxCell id="pu5RvgSUy4S_XeFUE6lE-4" value="" style="endArrow=classic;html=1;rounded=0;exitX=1;exitY=0.5;exitDx=0;exitDy=0;entryX=0.5;entryY=0;entryDx=0;entryDy=0;curved=1;strokeWidth=2;dashed=1;fillColor=#e1d5e7;strokeColor=#9673a6;" edge="1" parent="1" source="ExP0yfeotrht90dCuRNz-16" target="ExP0yfeotrht90dCuRNz-18">
          <mxGeometry width="50" height="50" relative="1" as="geometry">
            <mxPoint x="550" y="620" as="sourcePoint" />
            <mxPoint x="600" y="570" as="targetPoint" />
            <Array as="points">
              <mxPoint x="790" y="610" />
              <mxPoint x="780" y="580" />
              <mxPoint x="710" y="420" />
              <mxPoint x="570" y="280" />
            </Array>
          </mxGeometry>
        </mxCell>
      </root>
    </mxGraphModel>
  </diagram>
</mxfile>
